{
  "accessors": [
    {
      "bufferView": 2,
      "componentType": 5126,
      "count": 45008,
      "max": [
        8.93014907836914,
        11.555100440979004,
        12.244267463684082
      ],
      "min": [
        -8.930139541625977,
        -11.519552230834961,
        -0.16174499690532684
      ],
      "type": "VEC3"
    },
    {
      "bufferView": 2,
      "byteOffset": 540096,
      "componentType": 5126,
      "count": 45008,
      "max": [
        0.9999954700469971,
        0.9998732805252075,
        0.9999991655349731
      ],
      "min": [
        -0.9999954700469971,
        -0.9998177289962769,
        -0.9999977350234985
      ],
      "type": "VEC3"
    },
    {
      "bufferView": 1,
      "componentType": 5126,
      "count": 45008,
      "max": [
        0.9966030120849609,
        0.994333028793335
      ],
      "min": [
        0.0017000000225380063,
        0.0015999999595806003
      ],
      "type": "VEC2"
    },
    {
      "bufferView": 0,
      "componentType": 5125,
      "count": 232092,
      "type": "SCALAR"
    }
  ],
  "asset": {
    "extras": {
      "author": "ion.fbx (https://sketchfab.com/ionfbx)",
      "license": "CC-BY-4.0 (http://creativecommons.org/licenses/by/4.0/)",
      "source": "https://sketchfab.com/3d-models/nike-airforce-x-off-white-fc49abd229294ae9bece69e32ac47098",
      "title": "Nike Airforce x OFF WHITE"
    },
    "generator": "Sketchfab-16.44.0",
    "version": "2.0"
  },
  "bufferViews": [
    {
      "buffer": 0,
      "byteLength": 928368,
      "name": "floatBufferViews",
      "target": 34963
    },
    {
      "buffer": 0,
      "byteLength": 360064,
      "byteOffset": 928368,
      "byteStride": 8,
      "name": "floatBufferViews",
      "target": 34962
    },
    {
      "buffer": 0,
      "byteLength": 1080192,
      "byteOffset": 1288432,
      "byteStride": 12,
      "name": "floatBufferViews",
      "target": 34962
    }
  ],
  "buffers": [
    {
      "byteLength": 2368624,
      "uri": "scene.bin"
    }
  ],
  "extensionsUsed": [
    "KHR_materials_specular"
  ],
  "images": [
    {
      "uri": "textures/object_0__RGB_dffdb16d093e4af68_baseColor.jpeg"
    }
  ],
  "materials": [
    {
      "doubleSided": true,
      "extensions": {
        "KHR_materials_specular": {
          "specularColorFactor": [
            1.0,
            1.0,
            1.0
          ],
          "specularFactor": 0.30933427606636515
        }
      },
      "name": "object_0__RGB_dffdb16d093e4af68",
      "pbrMetallicRoughness": {
        "baseColorTexture": {
          "index": 0
        },
        "metallicFactor": 0.0
      }
    }
  ],
  "meshes": [
    {
      "name": "object_0_object_0_object_0__RGB_dffdb16d093e4af68_0",
      "primitives": [
        {
          "attributes": {
            "NORMAL": 1,
            "POSITION": 0,
            "TEXCOORD_0": 2
          },
          "indices": 3,
          "material": 0,
          "mode": 4
        }
      ]
    }
  ],
  "nodes": [
    {
      "children": [
        1
      ],
      "matrix": [
        1.0,
        0.0,
        0.0,
        0.0,
        0.0,
        2.220446049250313e-16,
        -1.0,
        0.0,
        0.0,
        1.0,
        2.220446049250313e-16,
        0.0,
        0.0,
        0.0,
        0.0,
        1.0
      ],
      "name": "Sketchfab_model"
    },
    {
      "children": [
        2
      ],
      "matrix": [
        1.0,
        0.0,
        0.0,
        0.0,
        0.0,
        0.0,
        1.0,
        0.0,
        0.0,
        -1.0,
        0.0,
        0.0,
        0.0,
        0.0,
        0.0,
        1.0
      ],
      "name": "8f0fb1764a1c40f2afb3f7586de3ae0f.fbx"
    },
    {
      "children": [
        3
      ],
      "name": "RootNode"
    },
    {
      "children": [
        4
      ],
      "name": "blend_root"
    },
    {
      "children": [
        5
      ],
      "matrix": [
        1.0,
        0.0,
        0.0,
        0.0,
        0.0,
        2.220446049250313e-16,
        -1.0,
        0.0,
        0.0,
        1.0,
        2.220446049250313e-16,
        0.0,
        0.0,
        0.0,
        0.0,
        1.0
      ],
      "name": "object_0_object_0"
    },
    {
      "mesh": 0,
      "name": "object_0_object_0_object_0__RGB_dffdb16d093e4af68_0"
    }
  ],
  "samplers": [
    {
      "magFilter": 9729,
      "minFilter": 9987,
      "wrapS": 10497,
      "wrapT": 10497
    }
  ],
  "scene": 0,
  "scenes": [
    {
      "name": "Sketchfab_Scene",
      "nodes": [
        0
      ]
    }
  ],
  "textures": [
    {
      "sampler": 0,
      "source": 0
    }
  ]
}
